# xmcd
# 
# Track frame offsets:
#     183
#     19118
#     32550
# 
# Disc length: 719
# 
# Revision: 0
# Processed by: cddbd v1.5.2PL0 Copyright (c) Steve Scherf et al.
# Submitted via: BonkEnc v1.0
# 
DISCID=1802cd03
DTITLE=Michael Penn - No Myth
DYEAR=1989
DGENRE=Rock
TTITLE0=No Myth
TTITLE1=Big House
TTITLE2=No Myth (Damascus mix)
EXTD=
EXTT0=
EXTT1=
EXTT2=
PLAYORDER=
